<?xml version="1.0" encoding="us-ascii" standalone="no"?><svg xmlns="http://www.w3.org/2000/svg" xmlns:xlink="http://www.w3.org/1999/xlink" contentStyleType="text/css" height="457px" preserveAspectRatio="none" style="width:581px;height:457px;background:#FFFFFF;" version="1.1" viewBox="0 0 581 457" width="581px" zoomAndPan="magnify"><defs/><g><!--class Matriz--><g id="elem_Matriz"><rect codeLine="1" fill="#F1F1F1" height="96.8906" id="Matriz" rx="2.5" ry="2.5" style="stroke:#181818;stroke-width:0.5;" width="266" x="158" y="213"/><ellipse cx="264.25" cy="229" fill="#ADD1B2" rx="11" ry="11" style="stroke:#181818;stroke-width:1.0;"/><path d="M266.5938,224.6719 C265.6563,224.2344 265.0625,224.0938 264.1875,224.0938 C261.5625,224.0938 259.5625,226.1719 259.5625,228.8906 L259.5625,230.0156 C259.5625,232.5938 261.6719,234.4844 264.5625,234.4844 C265.7813,234.4844 266.9375,234.1875 267.6875,233.6406 C268.2656,233.2344 268.5938,232.7813 268.5938,232.3906 C268.5938,231.9375 268.2031,231.5469 267.7344,231.5469 C267.5156,231.5469 267.3125,231.625 267.125,231.8125 C266.6719,232.2969 266.6719,232.2969 266.4844,232.3906 C266.0625,232.6563 265.375,232.7813 264.6094,232.7813 C262.5625,232.7813 261.2656,231.6875 261.2656,229.9844 L261.2656,228.8906 C261.2656,227.1094 262.5156,225.7969 264.25,225.7969 C264.8281,225.7969 265.4375,225.9531 265.9063,226.2031 C266.3906,226.4844 266.5625,226.7031 266.6563,227.1094 C266.7188,227.5156 266.75,227.6406 266.8906,227.7656 C267.0313,227.9063 267.2656,228.0156 267.4844,228.0156 C267.75,228.0156 268.0156,227.875 268.1875,227.6563 C268.2969,227.5 268.3281,227.3125 268.3281,226.8906 L268.3281,225.4688 C268.3281,225.0313 268.3125,224.9063 268.2188,224.75 C268.0625,224.4844 267.7813,224.3438 267.4844,224.3438 C267.1875,224.3438 266.9844,224.4375 266.7656,224.75 L266.5938,224.6719 Z " fill="#000000"/><text fill="#000000" font-family="sans-serif" font-size="14" lengthAdjust="spacing" textLength="45" x="284.75" y="233.8467">Matriz</text><line style="stroke:#181818;stroke-width:0.5;" x1="159" x2="423" y1="245" y2="245"/><rect fill="none" height="6" style="stroke:#C82930;stroke-width:1.0;" width="6" x="166" y="255.6484"/><text fill="#000000" font-family="sans-serif" font-size="14" lengthAdjust="spacing" textLength="178" x="178" y="261.9951">elementos: List[List[int]]</text><line style="stroke:#181818;stroke-width:0.5;" x1="159" x2="423" y1="269.2969" y2="269.2969"/><ellipse cx="169" cy="282.9453" fill="#84BE84" rx="3" ry="3" style="stroke:#038048;stroke-width:1.0;"/><text fill="#000000" font-family="sans-serif" font-size="14" lengthAdjust="spacing" textLength="240" x="178" y="286.292">__init__(elementos: List[List[int]])</text><ellipse cx="169" cy="299.2422" fill="#84BE84" rx="3" ry="3" style="stroke:#038048;stroke-width:1.0;"/><text fill="#000000" font-family="sans-serif" font-size="14" lengthAdjust="spacing" textLength="72" x="178" y="302.5889">imprimir()</text></g><!--class Imprimir--><g id="elem_Imprimir"><rect codeLine="7" fill="#F1F1F1" height="80.5938" id="Imprimir" rx="2.5" ry="2.5" style="stroke:#181818;stroke-width:0.5;" width="266" x="7" y="370"/><ellipse cx="104.75" cy="386" fill="#ADD1B2" rx="11" ry="11" style="stroke:#181818;stroke-width:1.0;"/><path d="M107.0938,381.6719 C106.1563,381.2344 105.5625,381.0938 104.6875,381.0938 C102.0625,381.0938 100.0625,383.1719 100.0625,385.8906 L100.0625,387.0156 C100.0625,389.5938 102.1719,391.4844 105.0625,391.4844 C106.2813,391.4844 107.4375,391.1875 108.1875,390.6406 C108.7656,390.2344 109.0938,389.7813 109.0938,389.3906 C109.0938,388.9375 108.7031,388.5469 108.2344,388.5469 C108.0156,388.5469 107.8125,388.625 107.625,388.8125 C107.1719,389.2969 107.1719,389.2969 106.9844,389.3906 C106.5625,389.6563 105.875,389.7813 105.1094,389.7813 C103.0625,389.7813 101.7656,388.6875 101.7656,386.9844 L101.7656,385.8906 C101.7656,384.1094 103.0156,382.7969 104.75,382.7969 C105.3281,382.7969 105.9375,382.9531 106.4063,383.2031 C106.8906,383.4844 107.0625,383.7031 107.1563,384.1094 C107.2188,384.5156 107.25,384.6406 107.3906,384.7656 C107.5313,384.9063 107.7656,385.0156 107.9844,385.0156 C108.25,385.0156 108.5156,384.875 108.6875,384.6563 C108.7969,384.5 108.8281,384.3125 108.8281,383.8906 L108.8281,382.4688 C108.8281,382.0313 108.8125,381.9063 108.7188,381.75 C108.5625,381.4844 108.2813,381.3438 107.9844,381.3438 C107.6875,381.3438 107.4844,381.4375 107.2656,381.75 L107.0938,381.6719 Z " fill="#000000"/><text fill="#000000" font-family="sans-serif" font-size="14" lengthAdjust="spacing" textLength="62" x="125.25" y="390.8467">Imprimir</text><line style="stroke:#181818;stroke-width:0.5;" x1="8" x2="272" y1="402" y2="402"/><line style="stroke:#181818;stroke-width:0.5;" x1="8" x2="272" y1="410" y2="410"/><ellipse cx="18" cy="423.6484" fill="#84BE84" rx="3" ry="3" style="stroke:#038048;stroke-width:1.0;"/><text fill="#000000" font-family="sans-serif" font-size="14" lengthAdjust="spacing" textLength="240" x="27" y="426.9951">__init__(elementos: List[List[int]])</text><ellipse cx="18" cy="439.9453" fill="#84BE84" rx="3" ry="3" style="stroke:#038048;stroke-width:1.0;"/><text fill="#000000" font-family="sans-serif" font-size="14" lengthAdjust="spacing" textLength="72" x="27" y="443.292">imprimir()</text></g><!--class Traspuesta--><g id="elem_Traspuesta"><rect codeLine="12" fill="#F1F1F1" height="80.5938" id="Traspuesta" rx="2.5" ry="2.5" style="stroke:#181818;stroke-width:0.5;" width="266" x="308" y="370"/><ellipse cx="397.25" cy="386" fill="#ADD1B2" rx="11" ry="11" style="stroke:#181818;stroke-width:1.0;"/><path d="M399.5938,381.6719 C398.6563,381.2344 398.0625,381.0938 397.1875,381.0938 C394.5625,381.0938 392.5625,383.1719 392.5625,385.8906 L392.5625,387.0156 C392.5625,389.5938 394.6719,391.4844 397.5625,391.4844 C398.7813,391.4844 399.9375,391.1875 400.6875,390.6406 C401.2656,390.2344 401.5938,389.7813 401.5938,389.3906 C401.5938,388.9375 401.2031,388.5469 400.7344,388.5469 C400.5156,388.5469 400.3125,388.625 400.125,388.8125 C399.6719,389.2969 399.6719,389.2969 399.4844,389.3906 C399.0625,389.6563 398.375,389.7813 397.6094,389.7813 C395.5625,389.7813 394.2656,388.6875 394.2656,386.9844 L394.2656,385.8906 C394.2656,384.1094 395.5156,382.7969 397.25,382.7969 C397.8281,382.7969 398.4375,382.9531 398.9063,383.2031 C399.3906,383.4844 399.5625,383.7031 399.6563,384.1094 C399.7188,384.5156 399.75,384.6406 399.8906,384.7656 C400.0313,384.9063 400.2656,385.0156 400.4844,385.0156 C400.75,385.0156 401.0156,384.875 401.1875,384.6563 C401.2969,384.5 401.3281,384.3125 401.3281,383.8906 L401.3281,382.4688 C401.3281,382.0313 401.3125,381.9063 401.2188,381.75 C401.0625,381.4844 400.7813,381.3438 400.4844,381.3438 C400.1875,381.3438 399.9844,381.4375 399.7656,381.75 L399.5938,381.6719 Z " fill="#000000"/><text fill="#000000" font-family="sans-serif" font-size="14" lengthAdjust="spacing" textLength="79" x="417.75" y="390.8467">Traspuesta</text><line style="stroke:#181818;stroke-width:0.5;" x1="309" x2="573" y1="402" y2="402"/><line style="stroke:#181818;stroke-width:0.5;" x1="309" x2="573" y1="410" y2="410"/><ellipse cx="319" cy="423.6484" fill="#84BE84" rx="3" ry="3" style="stroke:#038048;stroke-width:1.0;"/><text fill="#000000" font-family="sans-serif" font-size="14" lengthAdjust="spacing" textLength="240" x="328" y="426.9951">__init__(elementos: List[List[int]])</text><ellipse cx="319" cy="439.9453" fill="#84BE84" rx="3" ry="3" style="stroke:#038048;stroke-width:1.0;"/><text fill="#000000" font-family="sans-serif" font-size="14" lengthAdjust="spacing" textLength="141" x="328" y="443.292">traspuesta(): Matriz</text></g><!--class Lanzador--><g id="elem_Lanzador"><rect codeLine="17" fill="#F1F1F1" height="145.7813" id="Lanzador" rx="2.5" ry="2.5" style="stroke:#181818;stroke-width:0.5;" width="204" x="189" y="7"/><ellipse cx="254.25" cy="23" fill="#ADD1B2" rx="11" ry="11" style="stroke:#181818;stroke-width:1.0;"/><path d="M256.5938,18.6719 C255.6563,18.2344 255.0625,18.0938 254.1875,18.0938 C251.5625,18.0938 249.5625,20.1719 249.5625,22.8906 L249.5625,24.0156 C249.5625,26.5938 251.6719,28.4844 254.5625,28.4844 C255.7813,28.4844 256.9375,28.1875 257.6875,27.6406 C258.2656,27.2344 258.5938,26.7813 258.5938,26.3906 C258.5938,25.9375 258.2031,25.5469 257.7344,25.5469 C257.5156,25.5469 257.3125,25.625 257.125,25.8125 C256.6719,26.2969 256.6719,26.2969 256.4844,26.3906 C256.0625,26.6563 255.375,26.7813 254.6094,26.7813 C252.5625,26.7813 251.2656,25.6875 251.2656,23.9844 L251.2656,22.8906 C251.2656,21.1094 252.5156,19.7969 254.25,19.7969 C254.8281,19.7969 255.4375,19.9531 255.9063,20.2031 C256.3906,20.4844 256.5625,20.7031 256.6563,21.1094 C256.7188,21.5156 256.75,21.6406 256.8906,21.7656 C257.0313,21.9063 257.2656,22.0156 257.4844,22.0156 C257.75,22.0156 258.0156,21.875 258.1875,21.6563 C258.2969,21.5 258.3281,21.3125 258.3281,20.8906 L258.3281,19.4688 C258.3281,19.0313 258.3125,18.9063 258.2188,18.75 C258.0625,18.4844 257.7813,18.3438 257.4844,18.3438 C257.1875,18.3438 256.9844,18.4375 256.7656,18.75 L256.5938,18.6719 Z " fill="#000000"/><text fill="#000000" font-family="sans-serif" font-size="14" lengthAdjust="spacing" textLength="65" x="274.75" y="27.8467">Lanzador</text><line style="stroke:#181818;stroke-width:0.5;" x1="190" x2="392" y1="39" y2="39"/><rect fill="none" height="6" style="stroke:#C82930;stroke-width:1.0;" width="6" x="197" y="49.6484"/><text fill="#000000" font-family="sans-serif" font-size="14" lengthAdjust="spacing" textLength="178" x="209" y="55.9951">elementos: List[List[int]]</text><rect fill="none" height="6" style="stroke:#C82930;stroke-width:1.0;" width="6" x="197" y="65.9453"/><text fill="#000000" font-family="sans-serif" font-size="14" lengthAdjust="spacing" textLength="127" x="209" y="72.292">cantidad_filas: int</text><rect fill="none" height="6" style="stroke:#C82930;stroke-width:1.0;" width="6" x="197" y="82.2422"/><text fill="#000000" font-family="sans-serif" font-size="14" lengthAdjust="spacing" textLength="165" x="209" y="88.5889">cantidad_columnas: int</text><line style="stroke:#181818;stroke-width:0.5;" x1="190" x2="392" y1="95.8906" y2="95.8906"/><ellipse cx="200" cy="109.5391" fill="#84BE84" rx="3" ry="3" style="stroke:#038048;stroke-width:1.0;"/><text fill="#000000" font-family="sans-serif" font-size="14" lengthAdjust="spacing" textLength="62" x="209" y="112.8857">__init__()</text><ellipse cx="200" cy="125.8359" fill="#84BE84" rx="3" ry="3" style="stroke:#038048;stroke-width:1.0;"/><text fill="#000000" font-family="sans-serif" font-size="14" lengthAdjust="spacing" textLength="101" x="209" y="129.1826">crear_matriz()</text><ellipse cx="200" cy="142.1328" fill="#84BE84" rx="3" ry="3" style="stroke:#038048;stroke-width:1.0;"/><text fill="#000000" font-family="sans-serif" font-size="14" lengthAdjust="spacing" textLength="53" x="209" y="145.4795">lanzar()</text></g><!--link Matriz to Imprimir--><g id="link_Matriz_Imprimir"><path codeLine="26" d="M229.949,310.227 C209.015,329.509 198.9797,338.4198 181.6077,356.7954 " fill="none" id="Matriz-to-Imprimir" style="stroke:#181818;stroke-width:1.0;"/><polygon fill="none" points="169.242,369.8755,185.9678,360.9173,177.2477,352.6735,169.242,369.8755" style="stroke:#181818;stroke-width:1.0;"/></g><!--link Imprimir to Matriz--><g id="link_Imprimir_Matriz"><path codeLine="28" d="M192.838,369.8755 C213.305,351.4999 223.5937,342.4596 242.2067,323.1776 " fill="none" id="Imprimir-to-Matriz" style="stroke:#181818;stroke-width:1.0;"/><polygon fill="none" points="254.708,310.227,237.8899,319.0105,246.5236,327.3447,254.708,310.227" style="stroke:#181818;stroke-width:1.0;"/></g><!--link Matriz to Traspuesta--><g id="link_Matriz_Traspuesta"><path codeLine="27" d="M327.675,310.227 C346.223,329.509 355.5209,339.4052 375.7749,357.7808 " fill="none" id="Matriz-to-Traspuesta" style="stroke:#181818;stroke-width:1.0;"/><polygon fill="none" points="389.106,369.8755,379.8065,353.3371,371.7433,362.2245,389.106,369.8755" style="stroke:#181818;stroke-width:1.0;"/></g><!--link Traspuesta to Matriz--><g id="link_Traspuesta_Matriz"><path codeLine="29" d="M412.702,369.8755 C395.543,351.4999 386.5224,341.7246 365.6544,322.4426 " fill="none" id="Traspuesta-to-Matriz" style="stroke:#181818;stroke-width:1.0;"/><polygon fill="none" points="352.434,310.227,361.5825,326.8494,369.7263,318.0358,352.434,310.227" style="stroke:#181818;stroke-width:1.0;"/></g><!--link Lanzador to Matriz--><g id="link_Lanzador_Matriz"><path codeLine="30" d="M291,153.234 C291,173.302 291,176.586 291,194.858 " fill="none" id="Lanzador-to-Matriz" style="stroke:#181818;stroke-width:1.0;"/><polygon fill="none" points="291,212.858,297,194.858,285,194.858,291,212.858" style="stroke:#181818;stroke-width:1.0;"/></g><!--link Lanzador to Imprimir--><g id="link_Lanzador_Imprimir"><path codeLine="31" d="M188.626,149.777 C169.346,167.904 151.849,189.162 141,213 C118.106,263.301 120.6636,310.9021 127.9216,352.0948 " fill="none" id="Lanzador-to-Imprimir" style="stroke:#181818;stroke-width:1.0;"/><polygon fill="none" points="131.045,369.8217,133.8306,351.0536,122.0126,353.1359,131.045,369.8217" style="stroke:#181818;stroke-width:1.0;"/></g><!--link Lanzador to Traspuesta--><g id="link_Lanzador_Traspuesta"><path codeLine="32" d="M393.364,148.91 C413.073,167.2 430.987,188.746 442,213 C464.849,263.322 461.7417,310.9609 453.9097,352.1469 " fill="none" id="Lanzador-to-Traspuesta" style="stroke:#181818;stroke-width:1.0;"/><polygon fill="none" points="450.547,369.83,459.804,353.2678,448.0153,351.026,450.547,369.83" style="stroke:#181818;stroke-width:1.0;"/></g><!--SRC=[fL6n2iCW5DpzYZSc57yWG_T2kdKhGHx6mWCrGSsIjl_Ur8ecGw2bYyFTU_VkJgdHUpXZS3J3dG5mK5ePPSFW6sZ9Xsjyo8QkM-W3246MWX3L_bmT1ycCZWovgcPFncGyT4fOFFMdriMX7oVb0_wg5l9cLJSfVD5jqSxO3-wREZX8j85wxCMDbkq65cQBoq5FnXPgvVFZHZg5JfZe8a7wRI65JN_3-UEOwzk0fGUMwur42hRgQGtdcFjWFhU5Y-0B]--></g></svg>